HIERARCHY
ROOT Hips
{
	OFFSET 0.00000 0.00000 0.00000
	CHANNELS 6 Xposition Yposition Zposition Zrotation Yrotation Xrotation 
	JOINT LHipJoint
	{
		OFFSET 0 0 0
		CHANNELS 3 Zrotation Yrotation Xrotation
		JOINT LeftHip
		{
			OFFSET 1.62964 -1.40469 0.78906
			CHANNELS 3 Zrotation Yrotation Xrotation
			JOINT LeftKnee
			{
				OFFSET 2.29640 -6.30932 0.00000
				CHANNELS 3 Zrotation Yrotation Xrotation
				JOINT LeftAnkle
				{
					OFFSET 2.29451 -6.30412 0.00000
					CHANNELS 3 Zrotation Yrotation Xrotation
					JOINT LeftToe
					{
						OFFSET 0.03611 -0.09921 1.56387
						CHANNELS 3 Zrotation Yrotation Xrotation
						End Site
						{
							OFFSET 0.00000 -0.00000 0.80291
						}
					}
				}
			}
		}
	}
	JOINT RHipJoint
	{
		OFFSET 0 0 0
		CHANNELS 3 Zrotation Yrotation Xrotation
		JOINT RightHip
		{
			OFFSET -1.73712 -1.40469 0.78906
			CHANNELS 3 Zrotation Yrotation Xrotation
			JOINT RightKnee
			{
				OFFSET -2.28137 -6.26801 0.00000
				CHANNELS 3 Zrotation Yrotation Xrotation
				JOINT RightAnkle
				{
					OFFSET -2.28681 -6.28298 0.00000
					CHANNELS 3 Zrotation Yrotation Xrotation
					JOINT RightToe
					{
						OFFSET -0.15927 -0.43759 1.61103
						CHANNELS 3 Zrotation Yrotation Xrotation
						End Site
						{
							OFFSET -0.00000 -0.00000 0.84630
						}
					}
				}
			}
		}
	}
	JOINT lowerback
	{
		OFFSET 0 0 0
		CHANNELS 3 Zrotation Yrotation Xrotation
		JOINT Chest
		{
			OFFSET -0.04227 2.04338 -0.00225
			CHANNELS 3 Zrotation Yrotation Xrotation
			JOINT Chest2
			{
				OFFSET -0.02148 2.04482 -0.04273
				CHANNELS 3 Zrotation Yrotation Xrotation
				JOINT lowerneck
				{
					OFFSET 0 0 0
					CHANNELS 3 Zrotation Yrotation Xrotation
					JOINT Neck
					{
						OFFSET 0.09180 1.44629 0.19359
						CHANNELS 3 Zrotation Yrotation Xrotation
						JOINT Head
						{
							OFFSET 0.00887 1.40645 0.14750
							CHANNELS 3 Zrotation Yrotation Xrotation
							End Site
							{
								OFFSET -0.00669 1.50671 0.03707
							}
						}
					}
				}
				JOINT LeftCollar
				{
					OFFSET 0 0 0
					CHANNELS 3 Zrotation Yrotation Xrotation
					JOINT LeftShoulder
					{
						OFFSET 2.17674 1.86763 -0.06520
CHANNELS 3 Zrotation Xrotation Yrotation
						JOINT LeftElbow
						{
OFFSET 0 -4.657760 0.000000
CHANNELS 3 Zrotation Xrotation Yrotation
							JOINT LeftWrist
							{
OFFSET 0 -3.555390 0.000000
CHANNELS 3 Zrotation Xrotation Yrotation
								JOINT lhand
								{
									OFFSET 0 0 0
CHANNELS 3 Zrotation Xrotation Yrotation
									JOINT LFingers
									{
OFFSET 0 -0.707260 0.000000
CHANNELS 3 Zrotation Xrotation Yrotation
										End Site
										{
OFFSET 0 -0.570220 0.000000
										}
									}
								}
								JOINT LThumb
								{
OFFSET 0 0.000000 0.000000
CHANNELS 3 Zrotation Xrotation Yrotation
									End Site
									{
OFFSET 0 -0.578920 0.578920
									}
								}
							}
						}
					}
				}
				JOINT RightCollar
				{
					OFFSET 0 0 0
					CHANNELS 3 Zrotation Yrotation Xrotation
					JOINT RightShoulder
					{
						OFFSET -2.80694 1.55459 -0.32496
CHANNELS 3 Zrotation Xrotation Yrotation
						JOINT RightElbow
						{
OFFSET 0 -4.719250 -0.000000
CHANNELS 3 Zrotation Xrotation Yrotation
							JOINT RightWrist
							{
OFFSET 0 -3.569900 0.000000
CHANNELS 3 Zrotation Xrotation Yrotation
								JOINT rhand
								{
									OFFSET 0 0 0
CHANNELS 3 Zrotation Xrotation Yrotation
									JOINT RFingers
									{
OFFSET 0 -0.507760 0.000000
CHANNELS 3 Zrotation Xrotation Yrotation
										End Site
										{
OFFSET 0 -0.409370 0.000000
										}
									}
								}
								JOINT RThumb
								{
OFFSET 0 0.000000 0.000000
CHANNELS 3 Zrotation Xrotation Yrotation
									End Site
									{
OFFSET 0 -0.415620 0.415620
									}
								}
							}
						}
					}
				}
			}
		}
	}
}
MOTION
Frames: 10
Frame Time: 0.008333333333333333
9.019752 16.352144 30.799507 179.557489 -3.130190 -150.933708 0.000000 0.000000 0.000000 -14.738443 -17.807895 -23.977362 0.254583 3.246677 8.966133 0.278657 0.219624 -10.052591 3.938529 -12.077932 -36.008494 0.000000 0.000000 0.000000 16.318410 17.228653 -24.653478 -0.352849 -3.816130 10.559893 -1.460419 -3.375667 -24.259861 -2.826669 10.408694 -30.310952 -5.355505 -1.747513 -25.831135 -0.292495 -1.245445 -1.714949 2.251561 -1.093683 12.623409 5.104687 -4.846443 4.007329 -4.342310 -6.475754 -5.099029 -2.055116 -3.223479 -2.681586 0.000000 0.000000 0.000000 6.611132 1.814084 -14.672662 10.720666 -17.858731 1.689262 20.024439 4.553713 13.437834 0.000000 0.000000 0.000000 -7.125000 0.000000 0.000000 -5.039423 15.748813 -3.496579 0.000000 0.000000 0.000000 2.415042 6.107221 1.906904 -14.464320 -23.394626 -3.010009 -12.759075 14.067875 51.531915 0.000000 0.000000 0.000000 7.125000 0.000000 0.000000 60.952009 75.518830 -47.214625
9.021480 16.351066 30.798388 179.577000 -3.098638 -150.828412 0.000000 0.000000 0.000000 -14.679056 -17.802353 -24.150184 0.259863 3.279843 9.058699 0.282217 0.231964 -10.120307 3.993213 -12.151220 -36.269204 0.000000 0.000000 0.000000 16.313339 17.251811 -24.893484 -0.368151 -3.897313 10.787956 -1.475982 -3.367670 -24.375441 -2.883794 10.504446 -30.626263 -5.324186 -1.741652 -25.910440 -0.303935 -1.215923 -1.565239 2.228866 -1.076802 12.838727 5.118892 -4.890493 3.900864 -4.218748 -6.540376 -5.273599 -2.014930 -3.262370 -2.718747 0.000000 0.000000 0.000000 6.613152 1.761975 -14.638467 10.821714 -18.014359 1.720383 20.249753 4.551156 13.255086 0.000000 0.000000 0.000000 -7.125000 0.000000 0.000000 -4.878311 15.919258 -3.365581 0.000000 0.000000 0.000000 2.391705 6.029603 2.035770 -14.499090 -23.443717 -3.023816 -13.007765 14.161458 51.640743 0.000000 0.000000 0.000000 7.125000 0.000000 0.000000 61.212157 75.656106 -47.589001
9.023333 16.350176 30.797647 179.577000 -3.058463 -150.685354 0.000000 0.000000 0.000000 -14.623760 -17.844455 -24.367440 0.266904 3.323206 9.179965 0.288295 0.229073 -10.227045 4.050288 -12.226900 -36.539607 0.000000 0.000000 0.000000 16.241365 17.384418 -25.166407 -0.385718 -3.988189 11.043460 -1.502370 -3.426450 -24.605002 -2.911591 10.550477 -30.778439 -5.287643 -1.727421 -25.850400 -0.339292 -1.205471 -1.559531 2.172309 -1.067536 12.810412 5.177153 -4.961355 4.019906 -4.099779 -6.627026 -5.506199 -1.978016 -3.309883 -2.821112 0.000000 0.000000 0.000000 6.775853 1.936758 -14.982845 10.947057 -18.206932 1.759372 20.280588 4.130060 13.218543 0.000000 0.000000 0.000000 -7.125000 0.000000 0.000000 -4.855851 15.954763 -3.346234 0.000000 0.000000 0.000000 2.407641 6.154204 2.072684 -14.510949 -23.460394 -3.028560 -13.383275 14.508431 51.983639 0.000000 0.000000 0.000000 7.125000 0.000000 0.000000 62.290061 75.928510 -48.832868
9.023878 16.349941 30.796371 179.560953 -3.043249 -150.527437 0.000000 0.000000 0.000000 -14.571376 -17.974220 -24.569244 0.273887 3.366152 9.299924 0.294908 0.298571 -10.370393 4.132146 -12.333842 -36.923882 0.000000 0.000000 0.000000 16.124163 17.597258 -25.363851 -0.396094 -4.040909 11.191866 -1.524717 -3.545851 -24.832125 -2.918110 10.561205 -30.814008 -5.221681 -1.690248 -25.743586 -0.396045 -1.179746 -1.595248 2.081104 -1.048702 12.705964 5.257344 -5.006721 4.156540 -4.080717 -6.679146 -5.641508 -1.979912 -3.337011 -2.898217 0.000000 0.000000 0.000000 7.071385 2.060014 -15.554314 11.003875 -18.294191 1.777144 20.260490 3.642341 13.060877 0.000000 0.000000 0.000000 -7.125000 0.000000 0.000000 -4.864535 16.122862 -3.334495 0.000000 0.000000 0.000000 2.477959 6.378236 2.085765 -14.567681 -23.540427 -3.051193 -13.512021 14.584094 52.065626 0.000000 0.000000 0.000000 7.125000 0.000000 0.000000 62.529196 76.008591 -49.129680
9.024302 16.349766 30.795533 179.550336 -3.036018 -150.362828 0.000000 0.000000 0.000000 -14.493303 -18.149949 -24.774208 0.281223 3.410606 9.424123 0.301519 0.388110 -10.520308 4.149429 -12.356467 -37.005142 0.000000 0.000000 0.000000 16.009606 17.815570 -25.534013 -0.401840 -4.069868 11.273432 -1.538749 -3.685807 -25.006669 -2.919068 10.562803 -30.819311 -5.163178 -1.652707 -25.633969 -0.437986 -1.151990 -1.626574 2.011937 -1.029583 12.605481 5.310039 -5.028939 4.220647 -4.096518 -6.704946 -5.688843 -1.991737 -3.349939 -2.930926 0.000000 0.000000 0.000000 7.311870 2.131305 -15.952798 11.024391 -18.325687 1.783597 20.221359 3.351333 12.951120 0.000000 0.000000 0.000000 -7.125000 0.000000 0.000000 -4.887963 16.242263 -3.338026 0.000000 0.000000 0.000000 2.527994 6.600270 2.128021 -14.640873 -23.643436 -3.080496 -13.473230 14.392229 51.881549 0.000000 0.000000 0.000000 7.125000 0.000000 0.000000 61.860281 75.924793 -48.448017
9.025192 16.349308 30.795723 179.548773 -3.028467 -150.182280 0.000000 0.000000 0.000000 -14.379825 -18.352046 -25.009020 0.289352 3.458981 9.559376 0.307891 0.468097 -10.660924 4.065200 -12.245906 -36.608662 0.000000 0.000000 0.000000 15.904721 18.017141 -25.715889 -0.404845 -4.084977 11.315978 -1.543607 -3.828550 -25.114019 -2.914854 10.555929 -30.796490 -5.133727 -1.627634 -25.544317 -0.449899 -1.131841 -1.642525 1.990595 -1.016589 12.535700 5.316370 -5.029294 4.190016 -4.123144 -6.708270 -5.667936 -2.002339 -3.351400 -2.919814 0.000000 0.000000 0.000000 7.422601 2.158813 -16.019025 11.021531 -18.321285 1.782716 20.165431 3.353715 12.971166 0.000000 0.000000 0.000000 -7.125000 0.000000 0.000000 -4.927259 16.226458 -3.366820 0.000000 0.000000 0.000000 2.525940 6.779047 2.205144 -14.714059 -23.746173 -3.109907 -13.323783 13.988709 51.483785 0.000000 0.000000 0.000000 7.125000 0.000000 0.000000 60.448327 75.718224 -46.978095
9.028009 16.347455 30.798836 179.527277 -2.999188 -149.895422 0.000000 0.000000 0.000000 -14.236248 -18.528164 -25.429078 0.300470 3.524432 9.742535 0.313599 0.442969 -10.747055 3.842237 -11.945780 -35.542691 0.000000 0.000000 0.000000 15.738907 18.224094 -26.089324 -0.413962 -4.130118 11.443174 -1.545609 -3.937141 -25.183695 -2.869046 10.479952 -30.545433 -5.201550 -1.654985 -25.535793 -0.412244 -1.159267 -1.678474 2.062940 -1.034824 12.493227 5.265892 -5.016693 4.143837 -4.137079 -6.703156 -5.725234 -1.998855 -3.349473 -2.928635 0.000000 0.000000 0.000000 7.329946 2.217815 -15.607121 11.018937 -18.317283 1.781900 20.031564 3.664664 13.299978 0.000000 0.000000 0.000000 -7.125000 0.000000 0.000000 -5.030143 15.893050 -3.474151 0.000000 0.000000 0.000000 2.425948 6.861547 2.217152 -14.731033 -23.770041 -3.116726 -13.331344 13.850765 51.345619 0.000000 0.000000 0.000000 7.125000 0.000000 0.000000 59.937023 75.666338 -46.474203
9.027749 16.349237 30.796860 179.429162 -2.965267 -149.784733 0.000000 0.000000 0.000000 -14.272418 -18.722849 -25.572132 0.308849 3.572881 9.878045 0.321823 0.435626 -10.881563 3.666307 -11.701021 -34.684320 0.000000 0.000000 0.000000 15.538530 18.285862 -26.262093 -0.423303 -4.175819 11.571992 -1.557062 -4.003452 -25.302083 -2.839232 10.430149 -30.381231 -5.274686 -1.666957 -25.423189 -0.445280 -1.149166 -1.643621 2.072758 -1.030631 12.472565 5.276486 -5.044975 4.143462 -4.124952 -6.746418 -5.838570 -1.993973 -3.373216 -2.969389 0.000000 0.000000 0.000000 7.365252 2.248742 -15.452031 11.019810 -18.318593 1.782147 19.873480 3.823548 13.461738 0.000000 0.000000 0.000000 -7.125000 0.000000 0.000000 -5.144099 15.738160 -3.570688 0.000000 0.000000 0.000000 2.403581 6.973967 2.254215 -14.777145 -23.834735 -3.135346 -13.477211 13.928865 51.675111 0.000000 0.000000 0.000000 7.125000 0.000000 0.000000 61.086066 75.848336 -47.681608
9.029464 16.349347 30.794550 179.390858 -2.929205 -149.703417 0.000000 0.000000 0.000000 -14.256790 -18.817950 -25.715747 0.317928 3.624363 10.022151 0.329995 0.413515 -11.008523 3.599678 -11.607459 -34.357349 0.000000 0.000000 0.000000 15.430820 18.394447 -26.411372 -0.435631 -4.235163 11.739381 -1.573002 -4.064720 -25.450895 -2.840947 10.432946 -30.390550 -5.293357 -1.647751 -25.296193 -0.486834 -1.111439 -1.600516 2.051745 -1.009707 12.450437 5.312961 -5.086768 4.168718 -4.102002 -6.801664 -5.928309 -1.989087 -3.402818 -3.008274 0.000000 0.000000 0.000000 7.501060 2.277176 -15.539917 11.033591 -18.339692 1.786467 19.720169 3.760677 13.538882 0.000000 0.000000 0.000000 -7.125000 0.000000 0.000000 -5.251923 15.671916 -3.653616 0.000000 0.000000 0.000000 2.433848 7.123618 2.298409 -14.840190 -23.923020 -3.160870 -13.516206 13.939631 52.038819 0.000000 0.000000 0.000000 7.125000 0.000000 0.000000 62.424056 76.000177 -49.027405
9.035279 16.345513 30.794066 179.468411 -2.892201 -149.586790 0.000000 0.000000 0.000000 -14.092680 -18.768912 -25.978682 0.329088 3.686941 10.197502 0.336775 0.374617 -11.104764 3.681967 -11.724114 -34.763555 0.000000 0.000000 0.000000 15.467750 18.627254 -26.614795 -0.451713 -4.311737 11.955463 -1.590651 -4.133886 -25.615907 -2.880427 10.498962 -30.608196 -5.236234 -1.594564 -25.189556 -0.506292 -1.055280 -1.578055 2.018769 -0.977092 12.412946 5.353613 -5.125323 4.206807 -4.078527 -6.847411 -5.955801 -1.985271 -3.426666 -3.028038 0.000000 0.000000 0.000000 7.716230 2.319193 -15.858721 11.066623 -18.390293 1.796877 19.594244 3.439970 13.576382 0.000000 0.000000 0.000000 -7.125000 0.000000 0.000000 -5.339561 15.644672 -3.718259 0.000000 0.000000 0.000000 2.498785 7.306944 2.334138 -14.908940 -24.019118 -3.188770 -13.327875 13.753098 52.203821 0.000000 0.000000 0.000000 7.125000 0.000000 0.000000 63.151706 75.985290 -49.662983
